<svg width="40" height="40" viewBox="0 0 40 40" fill="none" xmlns="http://www.w3.org/2000/svg">
<rect x="1.5" y="1.5" width="37" height="37" rx="18.5" stroke="#3E37FC" stroke-width="3"/>
<path d="M26.5965 14.964C26.5965 15.4493 26.5312 15.9347 26.4005 16.42C26.2885 16.9053 26.0925 17.3533 25.8125 17.764C25.5325 18.156 25.1685 18.5107 24.7205 18.828C24.2725 19.1267 23.7312 19.3507 23.0965 19.5V19.668C23.6565 19.7613 24.1885 19.92 24.6925 20.144C25.1965 20.368 25.6352 20.676 26.0085 21.068C26.3819 21.46 26.6712 21.936 26.8765 22.496C27.1005 23.056 27.2125 23.7187 27.2125 24.484C27.2125 25.492 26.9978 26.3693 26.5685 27.116C26.1392 27.844 25.5605 28.4413 24.8325 28.908C24.1232 29.3747 23.3112 29.72 22.3965 29.944C21.4818 30.168 20.5392 30.28 19.5685 30.28C19.2512 30.28 18.8405 30.28 18.3365 30.28C17.8512 30.28 17.3192 30.2613 16.7405 30.224C16.1805 30.2053 15.6018 30.168 15.0045 30.112C14.4258 30.056 13.8938 29.972 13.4085 29.86V10.54C13.7632 10.484 14.1645 10.428 14.6125 10.372C15.0792 10.316 15.5738 10.2693 16.0965 10.232C16.6192 10.1947 17.1512 10.1667 17.6925 10.148C18.2525 10.1293 18.8032 10.12 19.3445 10.12C20.2592 10.12 21.1458 10.1947 22.0045 10.344C22.8818 10.4747 23.6565 10.7173 24.3285 11.072C25.0192 11.4267 25.5698 11.9213 25.9805 12.556C26.3912 13.1907 26.5965 13.9933 26.5965 14.964ZM19.5965 27.116C20.0632 27.116 20.5112 27.06 20.9405 26.948C21.3885 26.836 21.7805 26.668 22.1165 26.444C22.4525 26.2013 22.7232 25.9027 22.9285 25.548C23.1338 25.1933 23.2365 24.7733 23.2365 24.288C23.2365 23.672 23.1152 23.1867 22.8725 22.832C22.6298 22.4773 22.3125 22.2067 21.9205 22.02C21.5285 21.8147 21.0898 21.684 20.6045 21.628C20.1192 21.572 19.6338 21.544 19.1485 21.544H17.1045V26.948C17.1978 26.9853 17.3472 27.0133 17.5525 27.032C17.7578 27.0507 17.9725 27.0693 18.1965 27.088C18.4392 27.088 18.6818 27.0973 18.9245 27.116C19.1858 27.116 19.4098 27.116 19.5965 27.116ZM18.3365 18.632C18.5978 18.632 18.8965 18.6227 19.2325 18.604C19.5872 18.5853 19.8765 18.5573 20.1005 18.52C20.8098 18.296 21.4165 17.96 21.9205 17.512C22.4432 17.064 22.7045 16.476 22.7045 15.748C22.7045 15.2627 22.6112 14.8613 22.4245 14.544C22.2378 14.2267 21.9858 13.9747 21.6685 13.788C21.3698 13.6013 21.0245 13.4707 20.6325 13.396C20.2405 13.3213 19.8298 13.284 19.4005 13.284C18.9152 13.284 18.4672 13.2933 18.0565 13.312C17.6458 13.3307 17.3285 13.3587 17.1045 13.396V18.632H18.3365Z" fill="#3E37FC"/>
</svg>
